#!OML:ASF E:\acrobat2\Project_11_07_03\Capture day 1\Session 1\Acrobat.ASF
:FULLY-SPECIFIED
:DEGREES
53
root 10.1186 21.5668 -18.3043 5.94438 1.05724 -0.345419
lowerback -10.9676 -1.48133 -1.46897
upperback -1.36194 -1.77971 -0.216123
thorax 4.76313 -0.903263 0.336901
lowerneck 5.77522 -12.0646 -8.29563
upperneck 2.08784 -16.6935 8.39587
head 1.21839 -8.47002 4.09285
rclavicle 1.46914e-014 2.5842e-015
rhumerus -39.574 -7.86388 -81.3391
rradius 25.8756
rwrist 5.3254
rhand -3.52471 -26.4124
rfingers 7.12502
rthumb 22.2103 -55.1564
lclavicle 1.46914e-014 2.5842e-015
lhumerus -33.6258 0.430336 85.0241
lradius 24.2507
lwrist 8.27933
lhand -7.33089 -13.6934
lfingers 7.12502
lthumb 18.5526 15.4419
rfemur 5.91846 9.88761 19.3549
rtibia -2.47106
rfoot -17.004 -14.2497
rtoes 22.6566
lfemur 4.07523 -4.62199 -15.7886
ltibia -0.613734
lfoot -8.05872 -0.313652
ltoes 5.99528
54
root 10.1172 21.5665 -18.3048 5.94281 1.09201 -0.363581
lowerback -10.975 -1.47055 -1.49299
upperback -1.34017 -1.76162 -0.226797
thorax 4.79006 -0.894868 0.341442
lowerneck 5.56245 -12.1264 -8.17671
upperneck 2.25826 -16.764 8.3364
head 1.30099 -8.49927 4.02683
rclavicle -5.81445e-015 0
rhumerus -39.5245 -7.8783 -81.3877
rradius 25.8655
rwrist 5.32619
rhand -3.61619 -26.3412
rfingers 7.12502
rthumb 22.1225 -55.0956
lclavicle -5.81445e-015 0
lhumerus -33.5567 0.453317 85.0036
lradius 24.0394
lwrist 8.19149
lhand -7.3029 -13.702
lfingers 7.12502
lthumb 18.5795 15.4307
rfemur 5.90162 9.81018 19.3686
rtibia -2.42447
rfoot -17.0066 -14.1993
rtoes 22.6138
lfemur 4.07747 -4.62055 -15.7579
ltibia -0.628322
lfoot -8.03777 -0.339569
ltoes 5.9505
55
root 10.1161 21.5662 -18.3052 5.94096 1.1432 -0.382986
lowerback -10.9744 -1.4644 -1.51748
upperback -1.32668 -1.74997 -0.23461
thorax 4.80416 -0.889613 0.348613
lowerneck 5.36496 -12.1753 -8.07566
upperneck 2.42938 -16.8202 8.29321
head 1.3831 -8.52187 3.9712
rclavicle -5.03174e-016 -3.77691e-015
rhumerus -39.5073 -7.86624 -81.4351
rradius 25.8752
rwrist 5.30015
rhand -3.69596 -26.2703
rfingers 7.12502
rthumb 22.0459 -55.0337
lclavicle -5.03174e-016 -3.77691e-015
lhumerus -33.4991 0.481447 84.9841
lradius 23.8257
lwrist 8.09181
lhand -7.26178 -13.729
lfingers 7.12502
lthumb 18.619 15.4
rfemur 5.89401 9.69604 19.381
rtibia -2.39214
rfoot -16.9801 -14.1435
rtoes 22.5289
lfemur 4.06943 -4.61474 -15.7274
ltibia -0.624921
lfoot -8.00859 -0.38898
ltoes 5.9685
56
root 10.1149 21.5661 -18.3059 5.94042 1.20893 -0.41079
lowerback -10.9668 -1.46602 -1.53599
upperback -1.32487 -1.74992 -0.236245
thorax 4.80234 -0.889907 0.35749
lowerneck 5.23997 -12.1938 -8.03027
upperneck 2.54394 -16.8427 8.32537
head 1.4439 -8.53008 3.95928
rclavicle -2.49723e-015 7.95139e-016
rhumerus -39.5257 -7.82206 -81.4832
rradius 25.9053
rwrist 5.25942
rhand -3.76007 -26.2288
rfingers 7.12502
rthumb 21.9843 -54.9994
lclavicle -2.49723e-015 7.95139e-016
lhumerus -33.4672 0.532879 84.9586
lradius 23.6181
lwrist 7.95248
lhand -7.2189 -13.7759
lfingers 7.12502
lthumb 18.6603 15.3491
rfemur 5.89027 9.56607 19.4041
rtibia -2.3722
rfoot -16.9381 -14.0927
rtoes 22.4415
lfemur 4.04849 -4.60308 -15.6843
ltibia -0.605442
lfoot -7.96817 -0.45644
ltoes 6.0302
57
root 10.1133 21.5662 -18.3071 5.94271 1.27909 -0.449762
lowerback -10.955 -1.47567 -1.54612
upperback -1.33442 -1.76211 -0.230615
thorax 4.78647 -0.896042 0.367682
lowerneck 5.16894 -12.2047 -8.01907
upperneck 2.6228 -16.8596 8.39096
head 1.4898 -8.53705 3.97
rclavicle -3.62782e-015 -3.57812e-015
rhumerus -39.5689 -7.74403 -81.5339
rradius 25.9429
rwrist 5.21732
rhand -3.79988 -26.2295
rfingers 7.12502
rthumb 21.9461 -55.0047
lclavicle -3.62782e-015 -3.57812e-015
lhumerus -33.4574 0.624409 84.9198
lradius 23.416
lwrist 7.76083
lhand -7.16865 -13.8158
lfingers 7.12502
lthumb 18.7086 15.3046
rfemur 5.88234 9.43773 19.4427
rtibia -2.35757
rfoot -16.8938 -14.0468
rtoes 22.3842
lfemur 4.01672 -4.59016 -15.6241
ltibia -0.576218
lfoot -7.92887 -0.523288
ltoes 6.0905
58
root 10.1111 21.5668 -18.3085 5.94508 1.34819 -0.488684
lowerback -10.943 -1.49524 -1.5629
upperback -1.34901 -1.78701 -0.218895
thorax 4.76592 -0.90858 0.386149
lowerneck 5.13246 -12.1991 -8.03878
upperneck 2.68927 -16.8581 8.47469
head 1.52882 -8.53598 3.99594
rclavicle 4.18069e-015 9.93923e-016
rhumerus -39.6179 -7.63374 -81.5864
rradius 25.9729
rwrist 5.17852
rhand -3.79867 -26.2678
rfingers 7.12502
rthumb 21.9473 -55.0428
lclavicle 4.18069e-015 9.93923e-016
lhumerus -33.4611 0.757789 84.8689
lradius 23.224
lwrist 7.53064
lhand -7.1104 -13.8322
lfingers 7.12502
lthumb 18.7646 15.2827
rfemur 5.8722 9.32414 19.486
rtibia -2.34332
rfoot -16.8596 -14.0064
rtoes 22.3788
lfemur 3.98129 -4.57698 -15.5598
ltibia -0.542588
lfoot -7.89681 -0.581321
ltoes 6.11594
59
root 10.1083 21.568 -18.3101 5.94032 1.40954 -0.511435
lowerback -10.9284 -1.52263 -1.60342
upperback -1.36083 -1.81959 -0.205726
thorax 4.7478 -0.925369 0.418349
lowerneck 5.10682 -12.1865 -8.07316
upperneck 2.74925 -16.8485 8.56177
head 1.56485 -8.53116 4.02697
rclavicle 5.36097e-015 -5.36719e-015
rhumerus -39.6533 -7.50715 -81.6351
rradius 25.9773
rwrist 5.16047
rhand -3.74568 -26.3146
rfingers 7.12502
rthumb 21.9982 -55.0837
lclavicle 5.36097e-015 -5.36719e-015
lhumerus -33.4726 0.917508 84.8144
lradius 23.0524
lwrist 7.29067
lhand -7.0389 -13.8144
lfingers 7.12502
lthumb 18.8334 15.2938
rfemur 5.86871 9.22429 19.5145
rtibia -2.33216
rfoot -16.8312 -13.9678
rtoes 22.3945
lfemur 3.9547 -4.56171 -15.513
ltibia -0.510702
lfoot -7.87015 -0.63193
ltoes 6.09546
60
root 10.1053 21.5696 -18.3117 5.92846 1.45185 -0.505832
lowerback -10.9072 -1.55075 -1.67597
upperback -1.37266 -1.8493 -0.196134
thorax 4.72685 -0.941275 0.465441
lowerneck 5.07991 -12.1724 -8.11254
upperneck 2.81266 -16.8367 8.63769
head 1.60141 -8.52528 4.05507
rclavicle 1.3654e-014 4.77083e-015
rhumerus -39.6744 -7.37915 -81.6727
rradius 25.946
rwrist 5.16809
rhand -3.64199 -26.3475
rfingers 7.12502
rthumb 22.0977 -55.1048
lclavicle 1.3654e-014 4.77083e-015
lhumerus -33.5004 1.0791 84.7673
lradius 22.9105
lwrist 7.06606
lhand -6.95234 -13.7552
lfingers 7.12502
lthumb 18.9167 15.345
rfemur 5.86896 9.12724 19.507
rtibia -2.32132
rfoot -16.7995 -13.9155
rtoes 22.4025
lfemur 3.94195 -4.55294 -15.5054
ltibia -0.483907
lfoot -7.86108 -0.664993
ltoes 6.03518
61
root 10.1026 21.5712 -18.3133 5.91598 1.46811 -0.471099
lowerback -10.8816 -1.57184 -1.77312
upperback -1.3909 -1.86663 -0.193536
thorax 4.69709 -0.951357 0.521167
lowerneck 5.05522 -12.1591 -8.15979
upperneck 2.8836 -16.827 8.70551
head 1.64023 -8.52043 4.08167
rclavicle 7.01958e-015 -7.15625e-015
rhumerus -39.6916 -7.25666 -81.6978
rradius 25.8861
rwrist 5.18478
rhand -3.51366 -26.3669
rfingers 7.12502
rthumb 22.2209 -55.1096
lclavicle 7.01958e-015 -7.15625e-015
lhumerus -33.5544 1.23276 84.7284
lradius 22.7991
lwrist 6.86561
lhand -6.85336 -13.6751
lfingers 7.12502
lthumb 19.0119 15.4157
rfemur 5.86344 9.02048 19.4545
rtibia -2.30295
rfoot -16.7611 -13.8306
rtoes 22.4076
lfemur 3.94125 -4.56666 -15.5459
ltibia -0.467955
lfoot -7.88023 -0.663875
ltoes 5.95776
62
root 10.1005 21.5725 -18.3151 5.90558 1.4603 -0.423865
lowerback -10.8563 -1.58088 -1.87105
upperback -1.41336 -1.86762 -0.198042
thorax 4.66256 -0.95324 0.572434
lowerneck 5.04132 -12.1453 -8.21352
upperneck 2.94973 -16.8171 8.7696
head 1.67584 -8.51585 4.1092
rclavicle -1.11319e-014 -3.97569e-016
rhumerus -39.7057 -7.14999 -81.7164
rradius 25.8092
rwrist 5.20372
rhand -3.39289 -26.3683
rfingers 7.12502
rthumb 22.3369 -55.0971
lclavicle -1.11319e-014 -3.97569e-016
lhumerus -33.6221 1.37769 84.6901
lradius 22.7026
lwrist 6.69462
lhand -6.73403 -13.6047
lfingers 7.12502
lthumb 19.1266 15.4749
rfemur 5.84854 8.90709 19.3763
rtibia -2.27698
rfoot -16.7118 -13.7209
rtoes 22.3967
lfemur 3.95147 -4.6178 -15.6164
ltibia -0.469573
lfoot -7.9283 -0.618014
ltoes 5.89021
63
root 10.0987 21.5733 -18.3172 5.89933 1.44109 -0.386852
lowerback -10.837 -1.57737 -1.94571
upperback -1.43685 -1.85442 -0.206781
thorax 4.62896 -0.94763 0.608179
lowerneck 5.04499 -12.1308 -8.26997
upperneck 2.99946 -16.8068 8.84041
head 1.70387 -8.51154 4.1415
rclavicle -3.40419e-015 -3.18055e-015
rhumerus -39.717 -7.07689 -81.7306
rradius 25.7247
rwrist 5.22208
rhand -3.27367 -26.3651
rfingers 7.12502
rthumb 22.4513 -55.0801
lclavicle -3.40419e-015 -3.18055e-015
lhumerus -33.6863 1.4969 84.6496
lradius 22.5999
lwrist 6.55782
lhand -6.60742 -13.5783
lfingers 7.12502
lthumb 19.2484 15.4892
rfemur 5.82382 8.80121 19.3059
rtibia -2.24895
rfoot -16.6507 -13.6149
rtoes 22.3536
lfemur 3.96545 -4.70598 -15.6838
ltibia -0.486707
lfoot -7.99377 -0.533535
ltoes 5.86023
64
root 10.0971 21.5738 -18.3198 5.90222 1.42673 -0.375602
lowerback -10.8292 -1.56469 -1.98313
upperback -1.4608 -1.83316 -0.21624
thorax 4.59989 -0.937381 0.62312
lowerneck 5.06728 -12.1092 -8.32862
upperneck 3.03491 -16.7883 8.9323
head 1.72556 -8.50372 4.18372
rclavicle -1.41883e-014 -7.15625e-015
rhumerus -39.7287 -7.04831 -81.7387
rradius 25.6422
rwrist 5.24187
rhand -3.1232 -26.3841
rfingers 7.12502
rthumb 22.5957 -55.0816
lclavicle -1.41883e-014 -7.15625e-015
lhumerus -33.7417 1.57303 84.6112
lradius 22.4837
lwrist 6.45582
lhand -6.50845 -13.6051
lfingers 7.12502
lthumb 19.3435 15.4528
rfemur 5.78643 8.70999 19.2672
rtibia -2.21904
rfoot -16.5918 -13.5291
rtoes 22.2879
lfemur 3.96951 -4.81152 -15.7196
ltibia -0.512025
lfoot -8.05505 -0.433661
ltoes 5.85341
